<svg width="1220" height="289" viewBox="0 0 1220 289" fill="none" xmlns="http://www.w3.org/2000/svg">
<g filter="url(#filter0_d_707_3396)">
<path d="M163.444 40C145.644 77.0748 88.9185 169 163.443 169C237.786 169 181.973 78.0905 163.444 40Z" fill="#1DB352"/>
<path d="M40.3416 142.124C54.0994 180.736 79.3515 285.457 131.78 232.286C184.08 179.245 80.3769 155.526 40.3416 142.124Z" fill="#1DB352"/>
<path d="M281.507 142.124C267.749 180.736 242.497 285.457 190.069 232.286C137.769 179.245 241.472 155.526 281.507 142.124Z" fill="#1DB352"/>
<path d="M435.436 63.3832C422.539 55.9065 410.296 52.1682 398.707 52.1682C387.118 52.1682 378.333 55.9065 372.352 63.3832C366.557 70.6729 363.66 82.8224 363.66 99.8318C363.66 121.327 368.707 134.972 378.8 140.766C384.034 143.757 390.109 145.252 397.025 145.252C404.127 145.252 410.856 144.318 417.212 142.449L417.772 130.953L417.212 109.925L443.567 108.243L443.006 126.467L443.567 159.551C426.744 165.159 411.23 167.963 397.025 167.963C376.09 167.963 360.296 162.262 349.642 150.86C339.174 139.271 333.941 122.262 333.941 99.8318C333.941 77.4019 340.015 60.0187 352.165 47.6822C364.501 35.1589 381.885 28.8972 404.314 28.8972C419.081 29.0841 432.352 31.8878 444.128 37.3084L438.24 62.8224L435.436 63.3832ZM505.873 66.4673C520.827 66.4673 532.041 70.6729 539.518 79.0841C546.995 87.4953 550.733 99.9252 550.733 116.374C550.733 132.822 546.621 145.626 538.397 154.785C530.359 163.757 518.957 168.243 504.191 168.243C489.612 168.243 478.49 164.037 470.827 155.626C463.35 147.028 459.612 134.505 459.612 118.056C459.612 101.607 463.63 88.8972 471.668 79.9252C479.705 70.9533 491.107 66.4673 505.873 66.4673ZM505.032 85.2523C498.303 85.2523 493.443 87.5888 490.453 92.2617C487.462 96.7477 485.967 104.692 485.967 116.093C485.967 127.495 487.462 135.907 490.453 141.327C493.443 146.561 498.397 149.178 505.313 149.178C512.228 149.178 517.182 147.028 520.172 142.729C523.163 138.43 524.658 130.579 524.658 119.178C524.658 107.776 523.07 99.271 519.892 93.6635C516.714 88.0561 511.761 85.2523 505.032 85.2523ZM602.843 139.645H604.525L622.188 85.2523L625.833 68.1495H649.945L617.422 166H587.142L559.665 68.9907L585.74 67.5888L588.263 83.8505L602.843 139.645ZM677.502 20.486C681.988 20.486 685.446 21.7944 687.876 24.4112C690.306 26.8411 691.521 30.3925 691.521 35.0654C691.521 39.5514 690.212 43.1963 687.595 46C684.979 48.8037 681.334 50.2056 676.661 50.2056C672.175 50.2056 668.624 48.9906 666.007 46.5607C663.577 43.9439 662.362 40.3925 662.362 35.9065C662.362 31.4206 663.764 27.7757 666.567 24.972C669.371 21.9813 673.016 20.486 677.502 20.486ZM690.68 166H662.642L664.044 125.626L662.923 70.1121L690.96 67.8692L688.997 123.103L690.68 166ZM755.763 145.252C760.062 145.252 764.642 144.131 769.501 141.888L771.744 144.131L768.941 160.393C762.025 164.131 754.828 166.374 747.352 167.121C728.473 165.252 718.941 156.093 718.754 139.645L719.875 121.981V85.8131H706.698L705.576 84.6916L706.978 69.271H719.314V53.0093L744.828 44.8785L746.791 46.5607L745.95 69.271H771.184L772.025 70.6729L770.903 85.8131H745.67L744.548 132.916C744.548 137.402 745.296 140.579 746.791 142.449C748.473 144.318 751.464 145.252 755.763 145.252ZM832.537 89.7383C827.303 89.7383 821.228 92.5421 814.312 98.1495L813.752 123.103L815.154 166H787.397L788.798 125.346L787.677 20.7663L815.434 18.5234L814.593 82.1682H815.714C823.378 75.0654 831.696 70.0187 840.668 67.028C851.322 67.028 859.453 69.4579 865.06 74.3178C870.668 79.1776 873.378 86.0935 873.191 95.0654L872.63 123.103L873.752 166H845.714L847.397 105.159C847.77 94.8785 842.817 89.7383 832.537 89.7383ZM916.949 120.86C918.07 138.617 926.669 147.495 942.743 147.495C951.902 147.495 961.341 144.879 971.061 139.645L973.304 141.327L969.659 161.794C959.94 165.907 950.127 168.056 940.22 168.243C924.706 168.243 912.65 163.757 904.052 154.785C895.454 145.813 891.155 133.477 891.155 117.776C891.155 101.888 895.454 89.4579 904.052 80.486C912.837 71.3271 923.958 66.7477 937.416 66.7477C950.874 66.7477 960.874 70.2056 967.416 77.1215C974.145 83.8505 977.51 93.1963 977.51 105.159C977.51 108.897 977.229 112.729 976.669 116.654L972.463 120.579L916.949 120.86ZM938.257 84.972C932.837 84.972 928.257 86.7477 924.519 90.2991C920.968 93.8505 918.631 98.8972 917.51 105.439L952.837 104.318L953.398 102.075C953.211 90.6729 948.164 84.972 938.257 84.972ZM1056.33 105.159C1056.33 94.8785 1051.94 89.7383 1043.16 89.7383C1036.8 89.7383 1030.07 92.729 1022.97 98.7103V123.103L1024.37 166H996.334L997.735 125.626L996.614 70.1121L1023.25 67.8692V82.1682H1024.65C1032.69 75.0654 1041.1 70.0187 1049.89 67.028C1060.54 67.028 1068.58 69.4579 1074 74.3178C1079.6 79.1776 1082.31 86.0935 1082.13 95.0654L1081.57 123.103L1082.69 166H1054.65L1056.33 105.159ZM1142.67 66.4673C1155.19 66.4673 1164.54 68.8972 1170.71 73.757C1176.88 78.6168 1179.96 85.3458 1179.96 93.9439C1179.96 96.3738 1179.49 104.318 1178.56 117.776C1178.56 117.776 1178.28 125.439 1177.72 140.766C1177.72 143.196 1178 144.879 1178.56 145.813C1179.12 146.561 1180.24 146.935 1181.92 146.935C1183.61 146.935 1185.57 146.654 1187.81 146.093L1190.05 147.776L1187.25 162.355C1182.76 165.159 1177.72 166.935 1172.11 167.682C1163.14 166.935 1157.72 161.794 1155.85 152.262H1154.45C1147.34 159.738 1140.15 164.972 1132.86 167.963C1122.76 167.776 1114.82 165.065 1109.03 159.832C1103.23 154.598 1100.33 147.589 1100.33 138.804C1100.33 125.159 1107.53 116.935 1121.92 114.131L1154.17 108.243V99.5514C1154.17 90.3925 1149.87 85.8131 1141.27 85.8131C1132.67 85.8131 1122.58 89.8318 1110.99 97.8692L1108.75 96.7477L1105.66 78.243C1118 70.3925 1130.33 66.4673 1142.67 66.4673ZM1131.74 127.028C1127.44 127.963 1125.29 130.579 1125.29 134.879C1125.29 143.29 1128.93 147.495 1136.22 147.495C1141.64 147.495 1147.44 144.224 1153.61 137.682L1154.17 121.981L1131.74 127.028Z" fill="#1DB352"/>
<path d="M352.512 217.464L348.224 217.336V214.2H356.096V259H352.512V217.464ZM385.067 237.048C385.067 234.445 384.299 232.568 382.763 231.416C381.27 230.221 379.328 229.624 376.939 229.624C375.488 229.624 374.016 229.837 372.523 230.264C371.03 230.648 369.707 231.16 368.555 231.8V259H364.971V226.936H368.555L368.299 229.112C369.323 228.216 370.624 227.555 372.203 227.128C373.782 226.659 375.424 226.424 377.131 226.424C379.478 226.424 381.483 226.808 383.147 227.576C384.854 228.344 386.176 229.496 387.115 231.032C388.096 232.568 388.587 234.509 388.587 236.856V259H385.067V237.048ZM390.09 226.936H393.866L402.378 255.288L410.954 226.936H414.73L404.81 259H399.882L390.09 226.936ZM437.555 256.76C436.019 257.741 434.27 258.488 432.307 259C430.344 259.512 428.382 259.768 426.419 259.768C423.262 259.768 420.744 259 418.867 257.464C417.032 255.885 416.115 253.539 416.115 250.424V237.304C416.115 233.848 417.182 231.16 419.315 229.24C421.491 227.32 424.35 226.36 427.891 226.36C431.432 226.36 434.184 227.32 436.147 229.24C438.152 231.117 439.155 233.741 439.155 237.112V245.432L419.699 246.52V250.424C419.699 252.472 420.36 254.008 421.683 255.032C423.006 256.056 424.734 256.568 426.867 256.568C429.854 256.568 432.947 255.715 436.147 254.008L437.555 256.76ZM435.571 236.664C435.571 234.019 434.739 232.163 433.075 231.096C431.411 229.987 429.662 229.432 427.827 229.432C425.48 229.432 423.539 230.072 422.003 231.352C420.467 232.632 419.699 234.637 419.699 237.368V243L435.571 242.232V236.664ZM447.321 250.872C447.577 252.792 448.537 254.243 450.201 255.224C451.865 256.163 453.721 256.632 455.769 256.632C457.689 256.632 459.438 256.205 461.017 255.352C462.596 254.456 463.385 253.027 463.385 251.064C463.385 249.784 463.001 248.739 462.233 247.928C461.508 247.075 460.59 246.392 459.481 245.88C458.372 245.368 456.878 244.813 455.001 244.216C452.91 243.533 451.204 242.893 449.881 242.296C448.558 241.699 447.406 240.867 446.425 239.8C445.444 238.691 444.868 237.304 444.697 235.64L444.633 234.872C444.633 233.464 445.017 232.099 445.785 230.776C446.596 229.411 447.812 228.301 449.433 227.448C451.097 226.595 453.166 226.168 455.641 226.168C457.006 226.168 458.201 226.317 459.225 226.616C460.292 226.872 461.124 227.149 461.721 227.448C462.318 227.747 462.681 227.939 462.809 228.024L461.593 230.968C461.465 230.883 461.145 230.712 460.633 230.456C460.164 230.2 459.481 229.944 458.585 229.688C457.689 229.432 456.708 229.304 455.641 229.304C453.593 229.304 451.844 229.795 450.393 230.776C448.942 231.715 448.217 233.037 448.217 234.744C448.217 236.365 448.878 237.603 450.201 238.456C451.524 239.309 453.55 240.163 456.281 241.016C458.585 241.784 460.441 242.509 461.849 243.192C463.257 243.875 464.452 244.856 465.433 246.136C466.457 247.373 466.969 248.995 466.969 251C466.969 253.56 466.009 255.693 464.089 257.4C462.212 259.107 459.438 259.96 455.769 259.96C453.337 259.96 451.225 259.555 449.433 258.744C447.684 257.891 446.34 256.781 445.401 255.416C444.505 254.051 444.014 252.536 443.929 250.872H447.321ZM478.788 259.832C476.398 259.149 474.67 258.061 473.604 256.568C472.537 255.075 472.004 253.069 472.004 250.552V214.2H475.588V226.936H483.268L481.732 230.328H475.588V250.552C475.588 253.965 476.996 256.141 479.812 257.08L478.788 259.832ZM485.454 262.584C486.35 262.072 487.097 261.56 487.694 261.048C488.291 260.536 488.718 260.109 488.974 259.768C489.273 259.469 489.443 259.277 489.486 259.192L488.846 259C488.078 258.445 487.694 257.677 487.694 256.696C487.737 256.184 487.95 255.736 488.334 255.352C488.761 254.968 489.251 254.776 489.806 254.776C490.361 254.776 490.873 255.032 491.342 255.544C491.854 256.013 492.11 256.547 492.11 257.144C492.153 259.661 490.787 262.072 488.014 264.376L485.454 262.584ZM517.742 214.2H539.118V217.592H521.326V232.568H532.27L530.798 236.088H521.326V259H517.742V214.2ZM555.696 259C551.088 259.469 547.76 259.704 545.712 259.704C541.232 259.704 537.669 258.872 535.024 257.208C532.378 255.544 531.056 252.536 531.056 248.184V242.872C531.056 238.648 532.528 235.811 535.472 234.36C536.88 233.635 538.672 233.272 540.848 233.272C542.853 233.272 544.88 233.613 546.928 234.296C548.976 234.936 550.704 235.789 552.112 236.856C552.112 234.509 551.429 232.653 550.064 231.288C548.698 229.88 546.074 229.176 542.192 229.176L542.384 226.424C546.48 226.424 549.488 227.085 551.408 228.408C553.37 229.688 554.565 231.224 554.992 233.016C555.461 234.808 555.696 237.112 555.696 239.928V259ZM552.112 239.608C550.362 238.797 548.485 238.093 546.48 237.496C544.517 236.899 542.704 236.6 541.04 236.6C536.73 236.6 534.576 238.755 534.576 243.064V248.632C534.576 251.405 535.536 253.432 537.456 254.712C539.376 255.949 542.106 256.568 545.648 256.568C547.482 256.568 549.637 256.397 552.112 256.056V239.608ZM561.904 226.936H565.488L565.296 229.176C567.301 227.299 569.925 226.36 573.168 226.36C574.32 226.36 575.899 226.552 577.904 226.936L576.944 230.2C575.579 229.773 574.149 229.56 572.656 229.56C570.693 229.56 569.008 229.923 567.6 230.648C566.192 231.373 565.488 232.461 565.488 233.912V259H561.904V226.936ZM618.658 237.048C618.658 234.488 617.975 232.611 616.61 231.416C615.287 230.221 613.559 229.624 611.426 229.624C609.762 229.624 607.906 229.987 605.858 230.712L603.49 231.864C604.215 233.315 604.578 234.979 604.578 236.856V259H601.058V237.048C601.058 234.445 600.375 232.568 599.01 231.416C597.687 230.221 595.938 229.624 593.762 229.624C592.439 229.624 591.074 229.837 589.666 230.264C588.258 230.648 586.978 231.16 585.826 231.8V259H582.242V226.936H585.826L585.506 228.984C588.322 227.32 591.202 226.488 594.146 226.488C595.682 226.488 597.111 226.744 598.434 227.256C599.799 227.768 600.951 228.515 601.89 229.496C602.487 229.155 603.383 228.685 604.578 228.088C607.095 226.936 609.527 226.36 611.874 226.36C614.903 226.36 617.378 227.299 619.298 229.176C621.218 231.011 622.178 233.571 622.178 236.856V259H618.658V237.048ZM625.017 262.584C625.913 262.072 626.659 261.56 627.257 261.048C627.854 260.536 628.281 260.109 628.536 259.768C628.835 259.469 629.006 259.277 629.049 259.192L628.409 259C627.641 258.445 627.257 257.677 627.257 256.696C627.299 256.184 627.513 255.736 627.897 255.352C628.323 254.968 628.814 254.776 629.369 254.776C629.923 254.776 630.435 255.032 630.905 255.544C631.417 256.013 631.673 256.547 631.673 257.144C631.715 259.661 630.35 262.072 627.577 264.376L625.017 262.584ZM657.305 214.2H673.049C677.102 214.2 680.11 215.437 682.073 217.912C684.078 220.387 685.081 223.715 685.081 227.896C685.081 230.584 684.867 233.016 684.441 235.192C684.014 237.325 682.947 239.224 681.241 240.888C679.534 242.509 676.953 243.32 673.497 243.32H660.889V259H657.305V214.2ZM673.561 239.8C675.95 239.8 677.721 239.16 678.873 237.88C680.067 236.6 680.793 235.149 681.049 233.528C681.347 231.907 681.497 230.093 681.497 228.088C681.497 224.589 680.771 221.965 679.321 220.216C677.87 218.467 675.865 217.592 673.305 217.592H660.889V239.8H673.561ZM691.092 226.936H694.676L694.484 229.176C696.489 227.299 699.113 226.36 702.356 226.36C703.508 226.36 705.086 226.552 707.092 226.936L706.132 230.2C704.766 229.773 703.337 229.56 701.844 229.56C699.881 229.56 698.196 229.923 696.788 230.648C695.38 231.373 694.676 232.461 694.676 233.912V259H691.092V226.936ZM734.302 247.224C734.302 250.808 733.32 253.773 731.358 256.12C729.395 258.467 726.43 259.64 722.462 259.64C718.494 259.64 715.486 258.467 713.438 256.12C711.432 253.731 710.43 250.765 710.43 247.224V238.776C710.43 234.723 711.454 231.629 713.502 229.496C715.592 227.32 718.579 226.232 722.462 226.232C726.174 226.232 729.075 227.363 731.166 229.624C733.256 231.843 734.302 234.893 734.302 238.776V247.224ZM730.718 238.776C730.718 235.576 729.971 233.229 728.478 231.736C727.027 230.243 725.022 229.496 722.462 229.496C719.816 229.496 717.747 230.243 716.254 231.736C714.76 233.229 714.014 235.576 714.014 238.776V247.864C714.014 250.424 714.76 252.493 716.254 254.072C717.79 255.651 719.859 256.44 722.462 256.44C725.107 256.44 727.134 255.672 728.542 254.136C729.992 252.557 730.718 250.467 730.718 247.864V238.776ZM741.43 223.096C741.43 221.219 741.856 219.576 742.71 218.168C743.563 216.717 744.694 215.608 746.102 214.84C747.552 214.072 749.11 213.688 750.774 213.688C753.632 213.688 756.171 214.712 758.39 216.76L756.086 219.128C754.336 218.104 752.608 217.592 750.902 217.592C749.11 217.592 747.68 218.189 746.614 219.384C745.547 220.536 745.014 222.029 745.014 223.864V226.936H752.31L750.774 230.328H745.014V259H741.43V223.096ZM756.022 226.936H759.606V259H756.022V226.936ZM771.288 259.832C768.898 259.149 767.17 258.061 766.104 256.568C765.037 255.075 764.504 253.069 764.504 250.552V214.2H768.088V226.936H775.768L774.232 230.328H768.088V250.552C768.088 253.965 769.496 256.141 772.312 257.08L771.288 259.832Z" fill="white"/>
</g>
<defs>
<filter id="filter0_d_707_3396" x="-4" y="0" width="1228" height="297" filterUnits="userSpaceOnUse" color-interpolation-filters="sRGB">
<feFlood flood-opacity="0" result="BackgroundImageFix"/>
<feColorMatrix in="SourceAlpha" type="matrix" values="0 0 0 0 0 0 0 0 0 0 0 0 0 0 0 0 0 0 127 0" result="hardAlpha"/>
<feOffset dy="4"/>
<feGaussianBlur stdDeviation="2"/>
<feComposite in2="hardAlpha" operator="out"/>
<feColorMatrix type="matrix" values="0 0 0 0 0 0 0 0 0 0 0 0 0 0 0 0 0 0 0.25 0"/>
<feBlend mode="normal" in2="BackgroundImageFix" result="effect1_dropShadow_707_3396"/>
<feBlend mode="normal" in="SourceGraphic" in2="effect1_dropShadow_707_3396" result="shape"/>
</filter>
</defs>
</svg>
